<?xml version="1.0" encoding="utf-8"?>
<!-- Generator: Adobe Illustrator 19.0.0, SVG Export Plug-In . SVG Version: 6.00 Build 0)  -->
<svg version="1.1" id="Layer_1" xmlns="http://www.w3.org/2000/svg" xmlns:xlink="http://www.w3.org/1999/xlink" x="0px" y="0px"
	 viewBox="422 260.9 1440 320" style="enable-background:new 422 260.9 1440 320;" xml:space="preserve">
<style type="text/css">
	.st0{fill:#F4F6F8;}
</style>
<path class="st0" d="M421,514.8c7.6-1.1,15.2-2.1,22.8-3.2c21.8-5.7,65.2-15.7,109.2-58.7c43.5-43,87-117,131-112
	c43.5,5,87,91,131,106.7c43.4,16.3,87-37.7,131-37.4c43.3-0.3,87,53.7,131,48c43.2-5.3,87-69.3,130-106.6
	c44.1-37.7,88-47.7,131-21.4c82.1,50.2,89.5,98.9,131,106.7c57.2,10.8,81-81.4,159-79.1c57,1.6,105,52.7,108,56
	c30.2,33,32.6,63.5,69,85c22,13,44.4,15.6,59,16c-0.7-84.6-1.3-169.3-2-253.9h-21.8c-21.8,0-65.2,0-109.2,0c-43.5,0-87,0-131,0
	c-43.5,0-87,0-131,0c-43.4,0-87,0-131,0c-43.3,0-87,0-131,0c-43.2,0-87,0-130,0c-44.1,0-88,0-131,0c-44,0-88,0-131,0
	c-43.9,0-88,0-131,0c-43.8,0-87,0-131,0c-43.7,0-87,0-109,0h-22C421.7,345.5,421.3,430.2,421,514.8z"/>
<path class="st0" d="M358,265.1l21.8-5.3c21.8-5.7,65.2-15.7,109.2-58.7c43.5-43,87-117,131-112c43.5,5,87,91,131,106.7
	c43.4,16.3,87-37.7,131-37.4c43.3-0.3,87,53.7,131,48c43.2-5.3,87-69.3,130-106.6c44.1-37.7,88-47.7,131-21.4
	c44,26.7,88,90.7,131,106.7c43.9,16,88-16,131-37.3c43.8-21.7,87-31.7,131-26.7c43.7,5,87,27,109,37.3l22,10.7V9.1h-21.8
	c-21.8,0-65.2,0-109.2,0c-43.5,0-87,0-131,0c-43.5,0-87,0-131,0c-43.4,0-87,0-131,0c-43.3,0-87,0-131,0c-43.2,0-87,0-130,0
	c-44.1,0-88,0-131,0c-44,0-88,0-131,0c-43.9,0-88,0-131,0c-43.8,0-87,0-131,0c-43.7,0-87,0-109,0h-22V265.1z"/>
<path class="st0" d="M1879,441.8"/>
<path class="st0" d="M1195,676.8"/>
</svg>
